# xmcd
#
# Track frame offsets:
#	183
#	12913
#	23668
#	35898
#	46538
#	58915
#	70920
#	83815
#	94963
#	107255
#	117933
#	126178
#	136263
#	145763
#	159013
#	167270
#	179573
#	189005
#
# Disc length: 2705 seconds
#
# Revision: 4
# Processed by: cddbd v1.5.2PL0 Copyright (c) Steve Scherf et al.
# Submitted via: EasyCDDAExtractor 11.1.0.1
#
DISCID=df0a8f12
DTITLE=Various Artist - Stone Rock Blues
DYEAR=1994
DGENRE=Blues
TTITLE0=Chuck Berry - Carol
TTITLE1=Muddy Waters - Look What You've Done
TTITLE2=Chuck Berry - Little Queenie
TTITLE3=Bo Diddley - Mona
TTITLE4=Arthur Alexander - You Better Move On
TTITLE5=Chuck Berry - Around And Around
TTITLE6=Muddy Waters - I Just Want To Make Love To You
TTITLE7=Howlin' Wolf - Little Red Rooster (aka The Red Rooster)
TTITLE8=Chuck Berry - You Can't Catch Me
TTITLE9=Buddy Holly - Not Fade Away
TTITLE10=Chuck Berry - Come On
TTITLE11=Dale Hawkins - Susie Q
TTITLE12=Bo Diddley - Crackin' Up
TTITLE13=Muddy Waters - Mannish Boy
TTITLE14=Chuck Berry - I'm Talking About You
TTITLE15=Muddy Waters - I Can't Be Satisfied
TTITLE16=Chuck Berry - Bye Bye Johnny
TTITLE17=Muddy Waters - Rollin' Stone
EXTD=The Original Recordings Covered By The Rolling Stones\n
EXTT0=
EXTT1=
EXTT2=
EXTT3=
EXTT4=
EXTT5=
EXTT6=
EXTT7=
EXTT8=
EXTT9=
EXTT10=
EXTT11=
EXTT12=
EXTT13=
EXTT14=
EXTT15=
EXTT16=
EXTT17=
PLAYORDER=
